<?xml version="1.0" encoding="utf-8"?>
<!-- Generator: Adobe Illustrator 23.0.5, SVG Export Plug-In . SVG Version: 6.00 Build 0)  -->
<svg version="1.1" xmlns="http://www.w3.org/2000/svg" xmlns:xlink="http://www.w3.org/1999/xlink" x="0px" y="0px"
	 viewBox="0 0 81.67 66.89" style="enable-background:new 0 0 81.67 66.89;" xml:space="preserve">
<style type="text/css">
	.st0{fill:#C39C18;}
</style>
<g id="Capa_1">
</g>
<g id="Capa_2">
	<path class="st0" d="M21.44,20.32h5.55c0,0,4.16-8.45,14.91-8.08s15.95,10.93,16.22,14.79H16.76v-6.43L2.37,31.8h60.96
		c0,0-0.26-17.36-14.13-22.87S24.04,13.61,21.44,20.32z"/>
	<path d="M61.07,46.08l-5.55,0c0,0-4.16,8.45-14.91,8.09c-10.75-0.36-15.96-10.92-16.22-14.78l41.36-0.02l0,6.43L80.14,34.6
		l-60.96,0.02c0,0,0.27,17.36,14.14,22.86S58.47,52.79,61.07,46.08z"/>
</g>
</svg>
